<?xml version="1.0"?>
<svg xmlns="http://www.w3.org/2000/svg" viewBox="0 0 64 64" width="512" height="512"><g id="outline"><path d="M36.88,6.182A4.639,4.639,0,0,0,32,2a4.639,4.639,0,0,0-4.88,4.182C15.414,9.19,6,22.838,6,37,6,51.72,16.691,62,32,62S58,51.72,58,37C58,22.838,48.586,9.19,36.88,6.182ZM32,60C17.645,60,8,50.757,8,37,8,23.458,17.068,10.438,28.216,7.977l.677-.15.1-.686C29.315,4.851,30.131,4,32,4s2.685.851,3.01,3.141l.1.686.677.15C46.932,10.438,56,23.458,56,37,56,50.757,46.355,60,32,60Z"/><rect x="31" y="6" width="2" height="2"/><path d="M46.418,41.53A6.664,6.664,0,0,1,45,38a3.366,3.366,0,0,1,.79-2.291A5.712,5.712,0,0,0,47,32a7.629,7.629,0,0,0-1.117-3.971A5.685,5.685,0,0,1,45,25a4.918,4.918,0,0,1,1.358-2.857c.9-1.173,2.258-2.944.349-4.851-1.88-1.875-3.547-.965-4.886-.234A5.81,5.81,0,0,1,39,18a11,11,0,0,1-3.242-.466,13.49,13.49,0,0,0-7.516,0A11.015,11.015,0,0,1,25,18a5.817,5.817,0,0,1-2.82-.942c-1.344-.732-3.016-1.641-4.888.235-1.907,1.911-.549,3.679.35,4.849A4.915,4.915,0,0,1,19,25a5.691,5.691,0,0,1-.882,3.029A7.613,7.613,0,0,0,17,32a8.385,8.385,0,0,0,.561,3.342A6.461,6.461,0,0,1,18,38a7.925,7.925,0,0,1-.919,3.133c-.739,1.651-1.659,3.707.212,5.575,1.911,1.905,3.679.55,4.849-.35A4.915,4.915,0,0,1,25,45a5.691,5.691,0,0,1,3.029.882,7.611,7.611,0,0,0,7.942,0A5.694,5.694,0,0,1,39,45a4.923,4.923,0,0,1,2.858,1.358,4.948,4.948,0,0,0,2.811,1.314,2.846,2.846,0,0,0,2.039-.965C48.56,44.852,47.372,43.01,46.418,41.53Zm-1.126,3.763c-.573.576-.771.587-2.217-.522A6.636,6.636,0,0,0,39,43a7.619,7.619,0,0,0-3.971,1.118,5.642,5.642,0,0,1-6.058,0A7.613,7.613,0,0,0,25,43a6.624,6.624,0,0,0-4.076,1.772c-1.445,1.11-1.641,1.1-2.218.52-.822-.82-.611-1.528.2-3.342A9.585,9.585,0,0,0,20,38a8.385,8.385,0,0,0-.561-3.342A6.461,6.461,0,0,1,19,32a5.691,5.691,0,0,1,.882-3.029A7.613,7.613,0,0,0,21,25a6.624,6.624,0,0,0-1.772-4.076c-1.108-1.443-1.1-1.64-.52-2.217.782-.785,1.167-.627,2.516.107A7.612,7.612,0,0,0,25,20a12.824,12.824,0,0,0,3.758-.534,11.51,11.51,0,0,1,6.484,0A12.813,12.813,0,0,0,39,20a7.613,7.613,0,0,0,3.778-1.187c1.344-.732,1.728-.891,2.516-.105.574.574.586.771-.523,2.217A6.636,6.636,0,0,0,43,25a7.629,7.629,0,0,0,1.117,3.971A5.685,5.685,0,0,1,45,32a3.751,3.751,0,0,1-.851,2.566A5.345,5.345,0,0,0,43,38a8.444,8.444,0,0,0,1.737,4.614C45.827,44.3,45.905,44.68,45.292,45.293Z"/><path d="M23,41H41V22H23Zm2-17H39V39H25Z"/><path d="M23,49a3,3,0,1,0,3,3A3,3,0,0,0,23,49Zm0,4a1,1,0,1,1,1-1A1,1,0,0,1,23,53Z"/><path d="M32,50a4,4,0,1,0,4,4A4,4,0,0,0,32,50Zm0,6a2,2,0,1,1,2-2A2,2,0,0,1,32,56Z"/><path d="M41,49a3,3,0,1,0,3,3A3,3,0,0,0,41,49Zm0,4a1,1,0,1,1,1-1A1,1,0,0,1,41,53Z"/><rect x="23" y="12" width="2" height="2"/><rect x="27" y="10" width="2" height="2"/><path d="M53.988,31.848l-1.976.3c1.883,12.241-4.4,17.858-4.665,18.091L48,51l.65.759C48.954,51.5,56.049,45.244,53.988,31.848Z"/><path d="M32,27.753a2.989,2.989,0,0,0-3.691.525,2.976,2.976,0,0,0-.016,4.429L32,36.414l3.691-3.692a2.977,2.977,0,0,0,0-4.444A2.988,2.988,0,0,0,32,27.753Zm2.293,3.54L32,33.586l-2.309-2.308a.99.99,0,0,1,0-1.556,1.053,1.053,0,0,1,1.618,0l.691.662.691-.662a1.052,1.052,0,0,1,1.618,0,1.091,1.091,0,0,1,.378.778A1.108,1.108,0,0,1,34.293,31.293Z"/></g></svg>
